<?xml version="1.0" encoding="UTF-8" standalone="no"?>
<!DOCTYPE svg PUBLIC "-//W3C//DTD SVG 1.1//EN" "http://www.w3.org/Graphics/SVG/1.1/DTD/svg11.dtd">
<svg width="100%" height="100%" viewBox="0 0 494 494" version="1.1" xmlns="http://www.w3.org/2000/svg" xmlns:xlink="http://www.w3.org/1999/xlink" xml:space="preserve" style="fill-rule:evenodd;clip-rule:evenodd;stroke-linejoin:round;stroke-miterlimit:1.41421;">
    <g transform="matrix(1,0,0,1,-393,-137)">
        <g id="1">
            <g transform="matrix(1,0,0,1,-183.5,108)">
                <g transform="matrix(1,0,0,1,-109,150)">
                    <path d="M932.5,126L757.879,300.621C713.169,255.912 685.5,194.162 685.5,126L932.5,126Z" style="fill:rgb(239,200,129);"/>
                </g>
                <g transform="matrix(0.967611,0,0,0.967611,-78.7976,154.081)">
                    <path d="M932.5,126L757.879,300.621C713.169,255.912 685.5,194.162 685.5,126L932.5,126Z" style="fill:rgb(193,140,46);"/>
                </g>
                <g transform="matrix(0.927126,0,0,0.927126,-41.0445,159.182)">
                    <path d="M932.5,126L757.879,300.621C713.169,255.912 685.5,194.162 685.5,126L932.5,126Z" style="fill:rgb(193,60,46);"/>
                </g>
            </g>
            <g transform="matrix(0.672897,0,0,1,264.263,134)">
                <ellipse cx="309.5" cy="303" rx="53.5" ry="44" style="fill:rgb(254,242,209);"/>
            </g>
            <g transform="matrix(0.653179,0,0,0.653179,-117.501,222.765)">
                <circle cx="1017.25" cy="303.75" r="43.25" style="fill:rgb(204,229,138);"/>
                <g transform="matrix(0.815029,0,0,0.815029,188.162,56.185)">
                    <circle cx="1017.25" cy="303.75" r="43.25" style="fill:rgb(162,194,77);"/>
                </g>
                <g transform="matrix(0.421965,0,0,0.421965,588.006,175.578)">
                    <circle cx="1017.25" cy="303.75" r="43.25" style="fill:rgb(204,229,138);"/>
                </g>
            </g>
        </g>
        <g id="2">
            <g transform="matrix(-1,-1.22465e-16,1.22465e-16,-1,1463.5,660)">
                <g transform="matrix(1,0,0,1,-109,150)">
                    <path d="M932.5,126L757.879,300.621C713.169,255.912 685.5,194.162 685.5,126L932.5,126Z" style="fill:rgb(239,200,129);"/>
                </g>
                <g transform="matrix(0.967611,0,0,0.967611,-78.7976,154.081)">
                    <path d="M932.5,126L757.879,300.621C713.169,255.912 685.5,194.162 685.5,126L932.5,126Z" style="fill:rgb(193,140,46);"/>
                </g>
                <g transform="matrix(0.927126,0,0,0.927126,-41.0445,159.182)">
                    <path d="M932.5,126L757.879,300.621C713.169,255.912 685.5,194.162 685.5,126L932.5,126Z" style="fill:rgb(193,60,46);"/>
                </g>
            </g>
            <g transform="matrix(0.412863,-0.149955,0.22285,0.613561,611.932,181.09)">
                <ellipse cx="309.5" cy="303" rx="53.5" ry="44" style="fill:rgb(254,242,209);"/>
            </g>
            <g transform="matrix(0.634248,0.232952,-0.232952,0.634248,610.469,126.484)">
                <ellipse cx="297.5" cy="181.5" rx="18.5" ry="10.5" style="fill:rgb(62,46,0);"/>
            </g>
            <g transform="matrix(0.653179,0,0,0.653179,65.8035,148.347)">
                <circle cx="1017.25" cy="303.75" r="43.25" style="fill:rgb(204,229,138);"/>
                <g transform="matrix(0.815029,0,0,0.815029,188.162,56.185)">
                    <circle cx="1017.25" cy="303.75" r="43.25" style="fill:rgb(162,194,77);"/>
                </g>
                <g transform="matrix(0.421965,0,0,0.421965,588.006,175.578)">
                    <circle cx="1017.25" cy="303.75" r="43.25" style="fill:rgb(204,229,138);"/>
                </g>
            </g>
        </g>
        <g id="3">
            <g transform="matrix(0.707107,-0.707107,0.707107,0.707107,-137.464,771.141)">
                <g transform="matrix(1,0,0,1,-109,150)">
                    <path d="M932.5,126L757.879,300.621C713.169,255.912 685.5,194.162 685.5,126L932.5,126Z" style="fill:rgb(239,200,129);"/>
                </g>
                <g transform="matrix(0.967611,0,0,0.967611,-78.7976,154.081)">
                    <path d="M932.5,126L757.879,300.621C713.169,255.912 685.5,194.162 685.5,126L932.5,126Z" style="fill:rgb(193,140,46);"/>
                </g>
                <g transform="matrix(0.927126,0,0,0.927126,-41.0445,159.182)">
                    <path d="M932.5,126L757.879,300.621C713.169,255.912 685.5,194.162 685.5,126L932.5,126Z" style="fill:rgb(193,60,46);"/>
                </g>
            </g>
            <g transform="matrix(0.672897,0,0,1,373.263,237)">
                <ellipse cx="309.5" cy="303" rx="53.5" ry="44" style="fill:rgb(254,242,209);"/>
            </g>
            <g transform="matrix(0.634248,0.232952,-0.232952,0.634248,459.801,277.382)">
                <ellipse cx="297.5" cy="181.5" rx="18.5" ry="10.5" style="fill:rgb(62,46,0);"/>
            </g>
        </g>
        <g id="4">
            <g transform="matrix(-0.707107,-0.707107,0.707107,-0.707107,1027.14,1161.46)">
                <g transform="matrix(1,0,0,1,-109,150)">
                    <path d="M932.5,126L757.879,300.621C713.169,255.912 685.5,194.162 685.5,126L932.5,126Z" style="fill:rgb(239,200,129);"/>
                </g>
                <g transform="matrix(0.967611,0,0,0.967611,-78.7976,154.081)">
                    <path d="M932.5,126L757.879,300.621C713.169,255.912 685.5,194.162 685.5,126L932.5,126Z" style="fill:rgb(193,140,46);"/>
                </g>
                <g transform="matrix(0.927126,0,0,0.927126,-41.0445,159.182)">
                    <path d="M932.5,126L757.879,300.621C713.169,255.912 685.5,194.162 685.5,126L932.5,126Z" style="fill:rgb(193,60,46);"/>
                </g>
            </g>
            <g transform="matrix(0.653179,0,0,0.653179,89.2323,231.565)">
                <circle cx="1017.25" cy="303.75" r="43.25" style="fill:rgb(204,229,138);"/>
                <g transform="matrix(0.815029,0,0,0.815029,188.162,56.185)">
                    <circle cx="1017.25" cy="303.75" r="43.25" style="fill:rgb(162,194,77);"/>
                </g>
                <g transform="matrix(0.421965,0,0,0.421965,588.006,175.578)">
                    <circle cx="1017.25" cy="303.75" r="43.25" style="fill:rgb(204,229,138);"/>
                </g>
            </g>
            <g transform="matrix(0.637704,-0.214765,0.319165,0.947699,497.958,218.268)">
                <ellipse cx="309.5" cy="303" rx="53.5" ry="44" style="fill:rgb(254,242,209);"/>
            </g>
        </g>
        <g id="5">
            <g transform="matrix(6.12323e-17,-1,1,6.12323e-17,364,1207.5)">
                <g transform="matrix(1,0,0,1,-109,150)">
                    <path d="M932.5,126L757.879,300.621C713.169,255.912 685.5,194.162 685.5,126L932.5,126Z" style="fill:rgb(239,200,129);"/>
                </g>
                <g transform="matrix(0.967611,0,0,0.967611,-78.7976,154.081)">
                    <path d="M932.5,126L757.879,300.621C713.169,255.912 685.5,194.162 685.5,126L932.5,126Z" style="fill:rgb(193,140,46);"/>
                </g>
                <g transform="matrix(0.927126,0,0,0.927126,-41.0445,159.182)">
                    <path d="M932.5,126L757.879,300.621C713.169,255.912 685.5,194.162 685.5,126L932.5,126Z" style="fill:rgb(193,60,46);"/>
                </g>
            </g>
            <g transform="matrix(0.412863,-0.149955,0.22285,0.613561,484.494,342.801)">
                <ellipse cx="309.5" cy="303" rx="53.5" ry="44" style="fill:rgb(254,242,209);"/>
            </g>
            <g transform="matrix(0.439252,0,0,0.652778,571.791,361.441)">
                <ellipse cx="309.5" cy="303" rx="53.5" ry="44" style="fill:rgb(254,242,209);"/>
            </g>
            <g transform="matrix(0.477549,-0.478,0.478,0.477549,430.036,480.483)">
                <ellipse cx="297.5" cy="181.5" rx="18.5" ry="10.5" style="fill:rgb(62,46,0);"/>
            </g>
            <g transform="matrix(0.634248,0.232952,-0.232952,0.634248,521.492,358.752)">
                <ellipse cx="297.5" cy="181.5" rx="18.5" ry="10.5" style="fill:rgb(62,46,0);"/>
            </g>
        </g>
        <g id="6">
            <g transform="matrix(-0.707107,0.707107,-0.707107,-0.707107,1417.46,-3.14096)">
                <g transform="matrix(1,0,0,1,-109,150)">
                    <path d="M932.5,126L757.879,300.621C713.169,255.912 685.5,194.162 685.5,126L932.5,126Z" style="fill:rgb(239,200,129);"/>
                </g>
                <g transform="matrix(0.967611,0,0,0.967611,-78.7976,154.081)">
                    <path d="M932.5,126L757.879,300.621C713.169,255.912 685.5,194.162 685.5,126L932.5,126Z" style="fill:rgb(193,140,46);"/>
                </g>
                <g transform="matrix(0.927126,0,0,0.927126,-41.0445,159.182)">
                    <path d="M932.5,126L757.879,300.621C713.169,255.912 685.5,194.162 685.5,126L932.5,126Z" style="fill:rgb(193,60,46);"/>
                </g>
            </g>
            <g transform="matrix(0.466138,0.489135,-0.489135,0.466138,614.568,61.659)">
                <ellipse cx="297.5" cy="181.5" rx="18.5" ry="10.5" style="fill:rgb(62,46,0);"/>
            </g>
            <g transform="matrix(0.653179,0,0,0.653179,9.30347,1.34682)">
                <circle cx="1017.25" cy="303.75" r="43.25" style="fill:rgb(204,229,138);"/>
                <g transform="matrix(0.815029,0,0,0.815029,188.162,56.185)">
                    <circle cx="1017.25" cy="303.75" r="43.25" style="fill:rgb(162,194,77);"/>
                </g>
                <g transform="matrix(0.421965,0,0,0.421965,588.006,175.578)">
                    <circle cx="1017.25" cy="303.75" r="43.25" style="fill:rgb(204,229,138);"/>
                </g>
            </g>
            <g transform="matrix(0.47581,-0.47581,0.707107,0.707107,342.452,171.706)">
                <ellipse cx="309.5" cy="303" rx="53.5" ry="44" style="fill:rgb(254,242,209);"/>
            </g>
        </g>
        <g id="7">
            <g transform="matrix(0.707107,0.707107,-0.707107,0.707107,252.859,-393.464)">
                <g transform="matrix(1,0,0,1,-109,150)">
                    <path d="M932.5,126L757.879,300.621C713.169,255.912 685.5,194.162 685.5,126L932.5,126Z" style="fill:rgb(239,200,129);"/>
                </g>
                <g transform="matrix(0.967611,0,0,0.967611,-78.7976,154.081)">
                    <path d="M932.5,126L757.879,300.621C713.169,255.912 685.5,194.162 685.5,126L932.5,126Z" style="fill:rgb(193,140,46);"/>
                </g>
                <g transform="matrix(0.927126,0,0,0.927126,-41.0445,159.182)">
                    <path d="M932.5,126L757.879,300.621C713.169,255.912 685.5,194.162 685.5,126L932.5,126Z" style="fill:rgb(193,60,46);"/>
                </g>
            </g>
            <g transform="matrix(0.439252,0,0,0.652778,393.224,143.342)">
                <ellipse cx="309.5" cy="303" rx="53.5" ry="44" style="fill:rgb(254,242,209);"/>
            </g>
            <g transform="matrix(0.422565,-0.527235,0.527235,0.422565,259.953,407.538)">
                <ellipse cx="297.5" cy="181.5" rx="18.5" ry="10.5" style="fill:rgb(62,46,0);"/>
            </g>
            <g transform="matrix(0.653179,0,0,0.653179,-188.338,76.1115)">
                <circle cx="1017.25" cy="303.75" r="43.25" style="fill:rgb(204,229,138);"/>
                <g transform="matrix(0.815029,0,0,0.815029,188.162,56.185)">
                    <circle cx="1017.25" cy="303.75" r="43.25" style="fill:rgb(162,194,77);"/>
                </g>
                <g transform="matrix(0.421965,0,0,0.421965,588.006,175.578)">
                    <circle cx="1017.25" cy="303.75" r="43.25" style="fill:rgb(204,229,138);"/>
                </g>
            </g>
        </g>
        <g id="8">
            <g transform="matrix(0,1,-1,0,915.983,-439.5)">
                <g transform="matrix(1,0,0,1,-109,150)">
                    <path d="M932.5,126L757.879,300.621C713.169,255.912 685.5,194.162 685.5,126L932.5,126Z" style="fill:rgb(239,200,129);"/>
                </g>
                <g transform="matrix(0.967611,0,0,0.967611,-78.7976,154.081)">
                    <path d="M932.5,126L757.879,300.621C713.169,255.912 685.5,194.162 685.5,126L932.5,126Z" style="fill:rgb(193,140,46);"/>
                </g>
                <g transform="matrix(0.927126,0,0,0.927126,-41.0445,159.182)">
                    <path d="M932.5,126L757.879,300.621C713.169,255.912 685.5,194.162 685.5,126L932.5,126Z" style="fill:rgb(193,60,46);"/>
                </g>
            </g>
            <g transform="matrix(2.68964e-17,-0.439252,0.652778,3.99711e-17,407.276,422.254)">
                <ellipse cx="309.5" cy="303" rx="53.5" ry="44" style="fill:rgb(254,242,209);"/>
            </g>
            <g transform="matrix(0.439252,0,0,0.652778,410.557,32.7883)">
                <ellipse cx="309.5" cy="303" rx="53.5" ry="44" style="fill:rgb(254,242,209);"/>
            </g>
            <g transform="matrix(0.675676,0,0,0.675676,411.486,93.8041)">
                <ellipse cx="297.5" cy="181.5" rx="18.5" ry="10.5" style="fill:rgb(62,46,0);"/>
            </g>
        </g>
    </g>
</svg>
